<?xml version="1.0" encoding="UTF-8"?>
<!DOCTYPE svg PUBLIC "-//W3C//DTD SVG 1.1//EN" "http://www.w3.org/Graphics/SVG/1.1/DTD/svg11.dtd">
<!-- Creator: CorelDRAW -->
<svg xmlns="http://www.w3.org/2000/svg" xml:space="preserve" width="300px" height="300px" style="shape-rendering:geometricPrecision; text-rendering:geometricPrecision; image-rendering:optimizeQuality; fill-rule:evenodd; clip-rule:evenodd"
viewBox="0 0 288.852 288.851"
 xmlns:xlink="http://www.w3.org/1999/xlink">
 <defs>
  <style type="text/css">
   <![CDATA[
    .fil0 {fill:url(#id0)}
   ]]>
  </style>
  <linearGradient id="id0" gradientUnits="userSpaceOnUse" x1="144.426" y1="0.000318244" x2="144.426" y2="288.851">
   <stop offset="0" style="stop-color:#E47D26"/>
   <stop offset="0.501961" style="stop-color:#009244"/>
   <stop offset="1" style="stop-color:#754186"/>
  </linearGradient>
 </defs>
 <g id="__x0023_Layer_x0020_1">
  <metadata id="CorelCorpID_0Corel-Layer"/>
  <path class="fil0" d="M31.425 134.734l0.13048 7.49655c-0.940092,0.336702 -1.87923,0.672131 -2.82378,1.01424 -0.939455,0.335429 -1.8089,0.69027 -2.61151,1.06134 -0.591933,0.269234 -1.09571,0.531785 -1.51007,0.793063 -0.414671,0.261596 -0.761557,0.57793 -1.05148,0.950594 -0.285146,0.35325 -0.499006,0.775241 -0.631714,1.2717 -0.132708,0.490732 -0.192856,1.07535 -0.180762,1.74334l6.04695 -0.105657c0.310924,-0.0050919 0.592251,-0.0763785 0.834435,-0.211632 0.246639,-0.136527 0.435676,-0.370117 0.566155,-0.692498 0.0725595,-0.174716 0.147665,-0.477365 0.219906,-0.902221 0.0766967,-0.421036 0.122842,-0.769195 0.132708,-1.0327l1.07725 -0.0181399 0.184263 10.567 -1.07725 0.0190946c-0.00827433,-0.230727 -0.0477365,-0.56902 -0.107566,-1.00915 -0.0541014,-0.446178 -0.121251,-0.77015 -0.200175,-0.970961 -0.127616,-0.327791 -0.310606,-0.554699 -0.557563,-0.681996 -0.246639,-0.122842 -0.534968,-0.183945 -0.863713,-0.17758l-13.8318 0.241229c-0.32429,0.00668312 -0.590978,0.0712866 -0.810248,0.188718 -0.218952,0.120933 -0.407988,0.359615 -0.565837,0.719549 -0.118387,0.270507 -0.220543,0.620257 -0.306469,1.05498 -0.0910177,0.429629 -0.141937,0.745963 -0.157849,0.938819l-1.07216 0.0187764 -0.184263 -10.5682 1.07184 -0.0184581c0.02355,0.281646 0.0763785,0.62503 0.158804,1.01742 0.0779697,0.394304 0.153393,0.694089 0.222452,0.904448 0.124433,0.355796 0.316334,0.588432 0.582386,0.700772 0.264779,0.107885 0.543878,0.160395 0.834753,0.154985l6.5049 -0.114568 -0.0159122 -0.892992c-0.00668312,-0.367253 -0.0652399,-0.751055 -0.179808,-1.14886 -0.110112,-0.398123 -0.328427,-0.752964 -0.658764,-1.07089 -0.660674,-0.647944 -1.33217,-1.13358 -2.00175,-1.45151 -0.673085,-0.317289 -1.35986,-0.592888 -2.06063,-0.821069 -0.774923,-0.258732 -1.43337,-0.496142 -1.97884,-0.70841 -0.539423,-0.211632 -1.1304,-0.638715 -1.77675,-1.27648 -0.330019,-0.318562 -0.590978,-0.709047 -0.787017,-1.17209 -0.196356,-0.467182 -0.299467,-0.977644 -0.309333,-1.53712 -0.0159122,-0.92227 0.206858,-1.65073 0.667675,-2.19015 0.456043,-0.539423 1.04925,-0.817886 1.77294,-0.830298 0.799428,-0.014321 1.42955,0.199857 1.87923,0.640306 0.454452,0.44204 0.685179,1.01297 0.69759,1.71406 0.00795609,0.436312 -0.111704,0.871669 -0.362798,1.29462 -0.247275,0.41849 -0.736734,0.926407 -1.46042,1.51707 0.291829,0.273053 0.733233,0.504734 1.32962,0.701727 0.596389,0.196038 1.1164,0.379665 1.55717,0.54547 0.918769,0.341794 1.61604,0.678495 2.09213,1.01297 0.480548,0.330337 0.878034,0.714139 1.20105,1.15045l0.249185 -0.00381892c0.316334,-1.29462 0.857667,-2.36741 1.624,-3.22699 0.765058,-0.861167 1.70356,-1.55844 2.81359,-2.10614 0.484685,-0.233591 0.99833,-0.481821 1.53903,-0.735779 0.541651,-0.249821 1.00374,-0.47482 1.38627,-0.665129 0.591933,-0.291511 0.982418,-0.576021 1.1705,-0.852893 0.1884,-0.275599 0.296921,-0.498688 0.322381,-0.673722 0.0388257,-0.213223 0.0808339,-0.471955 0.112658,-0.783198 0.037871,-0.305832 0.0665129,-0.559791 0.0766967,-0.762512l1.07725 -0.0194129zm5.66442 -25.6934l0 0 -2.5364 10.1727 -1.04416 -0.260323c0.0410534,-0.227226 0.0903812,-0.560427 0.156258,-0.998967 0.0693771,-0.433448 0.0836981,-0.745008 0.0550561,-0.921952 -0.0502825,-0.361207 -0.171533,-0.63426 -0.359615,-0.811203 -0.187446,-0.182672 -0.450951,-0.311561 -0.787971,-0.395895l-11.0867 -2.76395 8.46624 11.1713c0.611664,0.15212 1.0327,0.19381 1.25961,0.120296 0.225953,-0.0703318 0.455088,-0.250139 0.688997,-0.546106 0.128889,-0.166123 0.278781,-0.439176 0.45668,-0.821705 0.173443,-0.382529 0.305514,-0.698863 0.383802,-0.95664l1.04543 0.260323 -2.52781 10.1367 -1.04543 -0.260005c0.052192,-0.22468 0.10152,-0.561064 0.158485,-1.00247 0.062694,-0.445223 0.0817886,-0.774605 0.0576021,-0.990056 -0.0388257,-0.348159 -0.156258,-0.61612 -0.362479,-0.801974 -0.20654,-0.182672 -0.468455,-0.315379 -0.787971,-0.395895l-13.4232 -3.34729c-0.315061,-0.0776514 -0.589705,-0.0836981 -0.831571,-0.0276872 -0.24282,0.061421 -0.486913,0.242183 -0.732915,0.549607 -0.183627,0.230727 -0.372663,0.542287 -0.56902,0.939137 -0.199539,0.39144 -0.330655,0.683587 -0.395259,0.866259l-1.04097 -0.259369 2.53799 -10.1777 1.04066 0.259369c-0.0515555,0.282919 -0.0871988,0.623121 -0.110112,1.02506 -0.0270507,0.399714 -0.0324609,0.713184 -0.0200493,0.935318 0.0276872,0.374891 0.153075,0.648899 0.381892,0.82266 0.226589,0.176943 0.482776,0.299786 0.765694,0.370117l10.8575 2.70634 -8.46146 -11.17c-0.465272,-0.116159 -0.807066,-0.127616 -1.03175,-0.0429629 -0.22468,0.0836981 -0.449042,0.265097 -0.667675,0.540378 -0.192856,0.228499 -0.372027,0.518101 -0.545788,0.86785 -0.169942,0.350704 -0.30615,0.641261 -0.402578,0.873579l-1.04034 -0.25905 2.52781 -10.1367 1.0397 0.260005c-0.0518737,0.287056 -0.0957913,0.619939 -0.125388,0.991011 -0.0292784,0.370117 -0.0362798,0.708092 -0.0165487,1.01806 0.0302331,0.367253 0.155621,0.639988 0.377755,0.81725 0.217042,0.180444 0.477365,0.30265 0.769513,0.375527l13.4407 3.35206c0.319517,0.0789244 0.607209,0.0932454 0.855439,0.0280054 0.252367,-0.0576021 0.496778,-0.239956 0.731324,-0.540059 0.144801,-0.190628 0.304241,-0.481821 0.473865,-0.871033 0.174398,-0.387621 0.302968,-0.708729 0.380301,-0.961414l1.04479 0.261596zm5.20901 -13.0811l0 0 -4.06143 10.0527 -0.99833 -0.404488c0.0782879,-0.232 0.189037,-0.581749 0.333838,-1.04034 0.14671,-0.464954 0.21927,-0.794973 0.223089,-0.991329 -0.00445541,-0.366298 -0.0833798,-0.646671 -0.245684,-0.849711 -0.162622,-0.197948 -0.406079,-0.362161 -0.72846,-0.492005l-12.8529 -5.1931c-0.292148,-0.118387 -0.566155,-0.168351 -0.834753,-0.144164 -0.266052,0.0190946 -0.533058,0.164532 -0.799428,0.432493 -0.169306,0.169306 -0.378073,0.436312 -0.62694,0.801974 -0.254595,0.364071 -0.454452,0.684224 -0.605936,0.956959l-0.993875 -0.401623 4.06111 -10.0524 0.994511 0.401942c-0.075742,0.263187 -0.171852,0.600207 -0.276872,0.998967 -0.10693,0.403215 -0.173443,0.757102 -0.191901,1.05339 -0.0254595,0.375527 0.0591933,0.668312 0.246002,0.871033 0.19031,0.20845 0.43313,0.372982 0.729733,0.492959l12.8437 5.18928c0.305832,0.123797 0.591933,0.167078 0.855757,0.142891 0.263506,-0.0257777 0.528284,-0.17758 0.7937,-0.446814 0.150529,-0.146074 0.344658,-0.41308 0.584295,-0.793063 0.23741,-0.38603 0.426446,-0.715412 0.551834,-0.989419l0.998967 0.403851zm-21.652 -8.94074l0 0c0.571247,0.230727 0.98751,0.631714 1.25483,1.21187 0.268598,0.57984 0.291829,1.1374 0.0719231,1.68287 -0.224362,0.553744 -0.631395,0.947411 -1.21919,1.18196 -0.590342,0.232954 -1.17305,0.230727 -1.7532,-0.00381892 -0.570929,-0.230727 -0.991647,-0.63426 -1.25674,-1.20773 -0.272098,-0.571884 -0.289602,-1.14186 -0.062694,-1.70419 0.219906,-0.544833 0.624394,-0.929908 1.22046,-1.16095 0.590978,-0.233273 1.17305,-0.231045 1.74461,0zm-2.55486 6.32382l0 0c0.571247,0.230727 0.986237,0.636487 1.25356,1.21696 0.266052,0.583659 0.286101,1.15013 0.0658764,1.69497 -0.223725,0.554699 -0.629486,0.943274 -1.21474,1.17305 -0.587796,0.22468 -1.1705,0.222134 -1.75034,-0.0114568 -0.571247,-0.230727 -0.993238,-0.629804 -1.26088,-1.19946 -0.271462,-0.571247 -0.291193,-1.1374 -0.0658764,-1.6956 0.220543,-0.544833 0.627895,-0.9385 1.22524,-1.174 0.591297,-0.233591 1.17591,-0.235819 1.74716,-0.00445541zm27.2515 -19.952l0 0c0.659401,-0.273053 1.34649,-0.398441 2.05554,-0.376164 0.712866,0.0254595 1.41618,0.263187 2.11059,0.714775 0.832207,0.540059 1.41937,1.17368 1.77039,1.89514 0.343385,0.722095 0.469091,1.52184 0.375209,2.39192 -0.0932454,0.920997 -0.365025,1.88305 -0.808021,2.88552 -0.440767,0.997694 -1.05721,2.11186 -1.85377,3.33838l-5.53139 8.51747 -0.903494 -0.58716c0.136527,-0.253322 0.296285,-0.576339 0.484367,-0.969688 0.185218,-0.389848 0.30074,-0.679132 0.332565,-0.866259 0.0700136,-0.358661 0.0439176,-0.655582 -0.0782879,-0.880898 -0.11966,-0.223725 -0.327791,-0.437585 -0.631714,-0.634896l-11.5548 -7.50291c-0.280054,-0.182672 -0.536559,-0.287374 -0.778106,-0.32079 -0.239637,-0.037871 -0.534649,0.0620575 -0.883444,0.295967 -0.258096,0.174398 -0.52001,0.39685 -0.788608,0.670858 -0.271462,0.272098 -0.502188,0.514918 -0.698545,0.729733l-0.899038 -0.583659 5.78726 -8.91146c1.45533,-2.24107 2.81327,-3.65821 4.07416,-4.25301 1.26088,-0.594161 2.49471,-0.499643 3.69863,0.281964 0.552153,0.358661 0.96937,0.786698 1.24179,1.28284 0.278463,0.495505 0.433448,1.0502 0.469728,1.66855 0.0410534,0.559154 -0.0050919,1.17432 -0.137163,1.83436 -0.132389,0.654309 -0.325563,1.33089 -0.576976,2.02053l0.221179 0.14321c0.452542,-0.558836 0.98751,-1.09699 1.61254,-1.61127 0.625985,-0.513645 1.25579,-0.90604 1.88941,-1.17305zm-7.35079 0.5146l0 0c-0.91145,-0.591297 -1.78376,-0.793063 -2.62583,-0.611028 -0.842073,0.182035 -1.5979,0.785107 -2.26399,1.81049 -0.0951548,0.145756 -0.210041,0.340521 -0.351341,0.584932 -0.139709,0.240274 -0.262551,0.446178 -0.365025,0.621212l6.07941 3.94813 0.389212 -0.599889c0.809612,-1.24656 1.11735,-2.35946 0.921634,-3.32756 -0.199857,-0.970643 -0.790199,-1.78025 -1.78407,-2.42629zm8.39495 4.30234l0 0c-1.14027,-0.740553 -2.23598,-0.969688 -3.28396,-0.685179 -1.04829,0.283237 -1.98839,1.05784 -2.81391,2.32859 -0.0948366,0.145756 -0.214814,0.348159 -0.358979,0.596389 -0.147029,0.252049 -0.254595,0.434721 -0.32079,0.55438l5.99985 3.89658c0.327791,0.117114 0.708729,0.0563291 1.14186,-0.178216 0.430902,-0.230727 0.81184,-0.611346 1.14854,-1.12754 0.593524,-0.915587 0.77015,-1.86109 0.528921,-2.83651 -0.243775,-0.971916 -0.925134,-1.82322 -2.04153,-2.5485zm17.1288 -11.5417l0 0c-0.996421,1.03238 -2.09341,1.83658 -3.29796,2.41324 -1.1966,0.576021 -2.43934,0.893946 -3.71868,0.946138 -1.25006,0.0553744 -2.51794,-0.168669 -3.79728,-0.679132 -1.27679,-0.506007 -2.46766,-1.29048 -3.56433,-2.34959 -1.08935,-1.05148 -1.91837,-2.21848 -2.47944,-3.49241 -0.557245,-1.27807 -0.850029,-2.587 -0.863713,-3.93381 -0.0197311,-1.32007 0.244093,-2.62869 0.789562,-3.92585 0.549925,-1.30003 1.34076,-2.49121 2.37983,-3.56751 0.751373,-0.778424 1.53266,-1.39709 2.34291,-1.85727 0.806748,-0.45668 1.54316,-0.792108 2.20734,-1.00629l0.0506007 -1.14218 0.833162 -0.862758 5.2176 4.86913 -0.843027 0.873261c-2.04376,-1.01902 -3.7661,-1.53171 -5.16987,-1.54698 -1.40409,-0.0152757 -2.58637,0.478002 -3.55033,1.4757 -1.19882,1.24179 -1.56926,2.71589 -1.1008,4.41659 0.472274,1.70579 1.69178,3.51023 3.66744,5.41842 1.11672,1.07853 2.1787,1.88846 3.18244,2.43297 1.0047,0.537832 1.91805,0.86435 2.74199,0.973507 0.876443,0.100883 1.68287,0.00381892 2.41961,-0.292148 0.740553,-0.292148 1.41427,-0.759648 2.02848,-1.39613 0.892355,-0.923225 1.43878,-1.99061 1.63418,-3.19485 0.195083,-1.21092 0.0709683,-2.6061 -0.368844,-4.18172l1.33758 -0.356115c0.307423,0.84621 0.5146,1.67396 0.62153,2.47753 0.107885,0.80993 0.098019,1.6119 -0.027369,2.4056 -0.144801,0.873897 -0.415626,1.72329 -0.82075,2.55581 -0.404488,0.824888 -1.02188,1.66791 -1.85186,2.52685zm15.8049 -21.1721l0 0c-0.81184,-1.15936 -1.76021,-1.81653 -2.84733,-1.96802 -1.08807,-0.151166 -2.25189,0.203994 -3.48477,1.06739 -0.14321,0.0999285 -0.3262,0.239637 -0.54547,0.410534 -0.223089,0.173761 -0.386984,0.299786 -0.493278,0.38603l4.30043 6.14147c0.270189,0.246957 0.645716,0.340202 1.12595,0.280054 0.48023,-0.0607845 0.965869,-0.268598 1.46328,-0.616756 0.89331,-0.625985 1.39677,-1.44928 1.50625,-2.47339 0.105657,-1.02188 -0.234546,-2.0985 -1.02506,-3.22731zm4.34721 -3.27982l0 0c0.559154,0.798155 0.879307,1.62432 0.962687,2.49057 0.0814704,0.861804 -0.0340521,1.70642 -0.355796,2.53417 -0.315379,0.795291 -0.759329,1.53107 -1.3328,2.21402 -0.572202,0.681996 -1.23956,1.28666 -1.99857,1.81844l-9.6291 6.74231 -0.618347 -0.882171c0.206858,-0.173125 0.471319,-0.409898 0.806429,-0.702045 0.328746,-0.293421 0.548016,-0.521601 0.647308,-0.683269 0.196993,-0.292784 0.283873,-0.571566 0.258732,-0.836026 -0.0276872,-0.261278 -0.144164,-0.541969 -0.349113,-0.834753l-7.91026 -11.297c-0.181081,-0.258414 -0.387621,-0.446814 -0.614528,-0.57443 -0.228181,-0.121887 -0.534649,-0.148938 -0.916542,-0.0709683 -0.276872,0.0566474 -0.61071,0.169624 -1.01138,0.335429 -0.398123,0.169624 -0.695044,0.30265 -0.892673,0.406397l-0.615165 -0.878352 8.8163 -6.17234 0.61421 0.878034c-0.219588,0.176943 -0.486595,0.410534 -0.798473,0.703318 -0.311879,0.292784 -0.557563,0.556926 -0.738962,0.798155 -0.217042,0.295967 -0.302013,0.585568 -0.250458,0.864986 0.0458271,0.277827 0.161668,0.541651 0.334156,0.788289l3.09142 4.41563c0.338293,-0.247594 0.712547,-0.53274 1.12117,-0.842391 0.410853,-0.316334 0.807384,-0.61071 1.20041,-0.886627 1.00088,-0.701091 1.96738,-1.25674 2.8992,-1.67333 0.930863,-0.417217 1.84645,-0.667675 2.75249,-0.751373 0.88058,-0.087517 1.7077,0.0280054 2.48771,0.354842 0.77365,0.325245 1.45437,0.905085 2.03994,1.74047zm26.0186 -5.66505l0 0 -6.84892 3.04973c-0.677222,-0.734188 -1.35381,-1.46742 -2.03676,-2.2032 -0.676904,-0.734188 -1.34203,-1.39518 -1.99762,-1.9887 -0.479593,-0.440767 -0.918133,-0.801656 -1.31976,-1.08107 -0.402578,-0.278463 -0.830298,-0.47482 -1.2857,-0.596707 -0.436949,-0.124115 -0.908904,-0.155939 -1.41778,-0.0843346 -0.504098,0.0703318 -1.06548,0.24282 -1.67555,0.514918l2.46034 5.52566c0.126024,0.283237 0.30074,0.515236 0.521283,0.68486 0.220861,0.174079 0.509826,0.256504 0.858303,0.250776 0.189037,-0.00222771 0.496778,-0.0515555 0.916223,-0.150529 0.416581,-0.0926089 0.755829,-0.187127 1.00183,-0.281327l0.438221 0.984009 -9.65551 4.29884 -0.437903 -0.984009c0.20845,-0.098019 0.504416,-0.265733 0.886945,-0.493278 0.389848,-0.22468 0.66131,-0.412126 0.81534,-0.562973 0.250776,-0.245684 0.389212,-0.503143 0.409261,-0.780015 0.0171852,-0.275281 -0.0397805,-0.564246 -0.173125,-0.864668l-5.62718 -12.6378c-0.131435,-0.295967 -0.296603,-0.515873 -0.490095,-0.672767 -0.196675,-0.15403 -0.490732,-0.234546 -0.883763,-0.239001 -0.294694,-0.00318244 -0.657173,0.0394622 -1.0903,0.129525 -0.43122,0.0843346 -0.742144,0.161031 -0.925771,0.221816l-0.436312 -0.979554 9.65519 -4.29884 0.436312 0.978917c-0.250139,0.132708 -0.544515,0.315379 -0.874852,0.545151 -0.332246,0.22468 -0.578249,0.412126 -0.745008,0.557881 -0.278463,0.252685 -0.417217,0.520328 -0.417536,0.809294 0.00381892,0.286101 0.0655582,0.562973 0.183945,0.828706l2.64556 5.94288 0.816295 -0.362798c0.335429,-0.149893 0.66672,-0.353569 0.988465,-0.615165 0.322699,-0.257141 0.563291,-0.595752 0.727823,-1.02411 0.337656,-0.861486 0.523193,-1.66951 0.55438,-2.40974 0.0295967,-0.744372 0.014321,-1.48397 -0.0502825,-2.21752 -0.0642852,-0.815658 -0.102793,-1.51452 -0.120933,-2.09818 -0.0155939,-0.579522 0.146392,-1.29111 0.481503,-2.13478 0.164214,-0.428674 0.421991,-0.821069 0.770786,-1.18259 0.352932,-0.363434 0.783198,-0.65781 1.29462,-0.885354 0.842073,-0.374891 1.59981,-0.45477 2.27608,-0.241547 0.675631,0.210041 1.1635,0.646353 1.45787,1.30862 0.325563,0.730051 0.373618,1.39327 0.145119,1.97884 -0.230727,0.591297 -0.664811,1.02729 -1.30575,1.31244 -0.399078,0.177898 -0.845892,0.237728 -1.33376,0.17217 -0.481821,-0.0642852 -1.14027,-0.316971 -1.96643,-0.751691 -0.136845,0.374891 -0.178535,0.872306 -0.126661,1.49765 0.052192,0.625985 0.086244,1.17655 0.105339,1.64723 0.0448724,0.979236 0.00763785,1.75193 -0.114568,2.32159 -0.116159,0.571884 -0.314106,1.08712 -0.590024,1.55462l0.10152 0.228181c1.31562,-0.214814 2.51412,-0.135572 3.60538,0.232954 1.09094,0.369481 2.10073,0.959505 3.037,1.76784 0.405124,0.35516 0.835071,0.730369 1.28029,1.12945 0.441086,0.400669 0.82807,0.738325 1.15268,1.01552 0.500597,0.431538 0.91495,0.67945 1.24274,0.74469 0.327791,0.0652399 0.575066,0.0782879 0.746281,0.0334156 0.210359,-0.0477365 0.465272,-0.109794 0.764421,-0.201766 0.296603,-0.0856075 0.542287,-0.159122 0.732915,-0.228181l0.437585 0.984009zm25.8274 -4.91814l0 0 -10.3257 1.82035 -0.186809 -1.06071c0.22468,-0.0537832 0.548016,-0.144801 0.975735,-0.263187 0.424855,-0.112976 0.715412,-0.225635 0.864986,-0.323972 0.310288,-0.193492 0.509826,-0.41499 0.595434,-0.659401 0.0903812,-0.245048 0.10152,-0.538468 0.0407352,-0.880898l-1.98393 -11.2521 -6.76204 12.2785c0.109158,0.620257 0.242183,1.0222 0.40226,1.19946 0.155621,0.177898 0.414035,0.313788 0.778424,0.407034 0.204949,0.0499643 0.514918,0.0766967 0.936273,0.0833798 0.421036,0.00222771 0.763785,-0.00541014 1.03015,-0.0381892l0.186809 1.06071 -10.2879 1.81431 -0.186809 -1.06134c0.225635,-0.0442359 0.553744,-0.135254 0.98019,-0.263506 0.431857,-0.123797 0.740553,-0.239956 0.927044,-0.34975 0.302331,-0.176943 0.499324,-0.393667 0.585887,-0.657173 0.0827433,-0.263187 0.0983373,-0.556926 0.0407352,-0.881217l-2.4021 -13.6234c-0.0566474,-0.319517 -0.162941,-0.573475 -0.312833,-0.771423 -0.15403,-0.197311 -0.419127,-0.346567 -0.799746,-0.446178 -0.285146,-0.0741508 -0.646671,-0.119978 -1.08967,-0.137481 -0.43854,-0.0225953 -0.758693,-0.0241865 -0.952185,-0.00891082l-0.185854 -1.05593 10.3299 -1.82194 0.186491 1.05625c-0.279418,0.0681041 -0.604663,0.173761 -0.981145,0.316334 -0.376482,0.138118 -0.665129,0.26096 -0.862758,0.362161 -0.331292,0.17758 -0.530194,0.404169 -0.59607,0.683269 -0.0696954,0.279418 -0.0773332,0.562973 -0.026096,0.850029l1.9432 11.0198 6.76236 -12.2727c-0.0833798,-0.472592 -0.210359,-0.789562 -0.379665,-0.960459 -0.168351,-0.171215 -0.426128,-0.30265 -0.766012,-0.390485 -0.287056,-0.0827433 -0.624394,-0.128252 -1.01456,-0.145756 -0.389212,-0.0124115 -0.710002,-0.0181399 -0.961732,-0.0114568l-0.186173 -1.05625 10.2879 -1.81399 0.186173 1.05561c-0.283873,0.0696954 -0.605618,0.164532 -0.956959,0.288329 -0.350386,0.124115 -0.661629,0.255231 -0.936909,0.399396 -0.322699,0.17567 -0.521283,0.40226 -0.59257,0.677859 -0.0760602,0.271462 -0.0833798,0.558518 -0.0305514,0.855121l2.40529 13.6425c0.0576021,0.323972 0.161668,0.591933 0.321744,0.793063 0.155621,0.206858 0.421036,0.355796 0.790517,0.447769 0.234227,0.0550561 0.563609,0.0824251 0.987828,0.0789244 0.425492,0.00190946 0.772059,-0.0114568 1.03397,-0.0429629l0.186809 1.06071zm27.5217 1.01742l0 0 -10.4597 -0.731324 0.0747873 -1.07471c0.231363,0.00254595 0.566792,-0.00763785 1.01074,-0.0190946 0.43854,-0.00700136 0.748827,-0.0464636 0.917815,-0.10502 0.347522,-0.112658 0.595116,-0.2791 0.737689,-0.495824 0.145756,-0.215451 0.226908,-0.497733 0.252049,-0.845255l0.796246 -11.3979 -9.53044 10.278c-0.0445541,0.628849 -0.0127297,1.05052 0.100247,1.26152 0.107885,0.210359 0.324927,0.404488 0.656537,0.583341 0.186491,0.098019 0.482139,0.198266 0.888854,0.307423 0.407352,0.104066 0.742144,0.179171 1.00788,0.211632l-0.074469 1.07503 -10.4212 -0.729096 0.0747873 -1.07439c0.23009,0.0114568 0.570611,0.00190946 1.0152,-0.0184581 0.449042,-0.0162304 0.776833,-0.0541014 0.984009,-0.115522 0.336702,-0.0986555 0.579522,-0.26096 0.727823,-0.496142 0.14321,-0.234546 0.229135,-0.516828 0.252367,-0.845255l0.965233 -13.8c0.0232318,-0.323654 -0.0197311,-0.595434 -0.116795,-0.823615 -0.101838,-0.228499 -0.323336,-0.437267 -0.66863,-0.626303 -0.258732,-0.140982 -0.59798,-0.27369 -1.02347,-0.397486 -0.420718,-0.12857 -0.730687,-0.206222 -0.921634,-0.239001l0.0747873 -1.06962 10.4635 0.731642 -0.0747873 1.07025c-0.287692,-0.000954731 -0.629168,0.0213223 -1.02825,0.0690589 -0.398759,0.0432811 -0.708729,0.0919724 -0.924498,0.14321 -0.365344,0.0926089 -0.612301,0.263506 -0.743417,0.518419 -0.135572,0.254277 -0.211632,0.52733 -0.232,0.818523l-0.780333 11.1627 9.53044 -10.2729c0.0337338,-0.478638 -0.0133662,-0.816931 -0.136208,-1.02315 -0.122842,-0.20654 -0.339566,-0.396213 -0.648899,-0.563928 -0.257777,-0.150211 -0.57443,-0.276235 -0.948366,-0.386984 -0.374891,-0.106293 -0.685179,-0.189673 -0.930863,-0.244729l0.074469 -1.0693 10.4222 0.72846 -0.074469 1.06994c-0.292784,-0.00159122 -0.629168,0.0127297 -0.999921,0.0477365 -0.369481,0.0356433 -0.702682,0.0878352 -1.00533,0.16135 -0.356115,0.0926089 -0.603072,0.263506 -0.738007,0.513645 -0.140345,0.245048 -0.215769,0.522238 -0.236773,0.82266l-0.966824 13.8188c-0.0219588,0.328427 0.013048,0.61421 0.120614,0.848119 0.100883,0.238046 0.322381,0.446814 0.658764,0.625985 0.21386,0.109158 0.52733,0.216087 0.939773,0.315379 0.412126,0.104702 0.75201,0.175352 1.01297,0.207495l-0.074469 1.07471zm-4.11712 -24.4768l0 0c-0.0197311,0.286101 -0.147983,0.626622 -0.382529,1.02443 -0.234546,0.398759 -0.57443,0.732915 -1.01742,1.00374 -0.518419,0.322381 -1.13486,0.566792 -1.83977,0.734825 -0.70841,0.167078 -1.66855,0.208131 -2.88997,0.12316 -1.11608,-0.0779697 -2.04153,-0.255868 -2.78177,-0.534331 -0.734506,-0.273053 -1.32007,-0.596389 -1.75161,-0.971598 -0.427401,-0.359615 -0.721777,-0.738325 -0.88249,-1.13613 -0.160713,-0.398123 -0.23009,-0.751691 -0.20845,-1.06643 0.0324609,-0.464317 0.21927,-0.843027 0.564246,-1.12054 0.340521,-0.277508 0.763466,-0.403533 1.26629,-0.368208 0.549289,0.0381892 0.999285,0.201766 1.34235,0.489459 0.343067,0.283555 0.495505,0.662265 0.462408,1.13136 -0.0175034,0.253322 -0.107248,0.543242 -0.272417,0.871669 -0.16485,0.323336 -0.293739,0.554699 -0.388575,0.698863 0.347522,0.288965 0.765376,0.516509 1.24433,0.672131 0.484685,0.156258 0.977963,0.257141 1.48015,0.292148 0.486913,0.0334156 0.979236,0.0114568 1.48015,-0.0661947 0.504416,-0.0735143 0.969052,-0.244093 1.39359,-0.506007 -0.0824251,-0.1849 -0.176625,-0.446178 -0.295012,-0.789244 -0.112022,-0.342748 -0.162304,-0.629486 -0.147029,-0.859258 0.0330973,-0.459862 0.245684,-0.808021 0.644762,-1.04925 0.392394,-0.236137 0.8443,-0.341475 1.35954,-0.305196 0.512054,0.0356433 0.918769,0.214814 1.21696,0.528284 0.304877,0.318562 0.436312,0.718912 0.40226,1.20232zm31.4762 22.6122l0 0c0.469091,0.54897 0.784789,1.17559 0.949321,1.87159 0.162304,0.701091 0.112022,1.46583 -0.153393,2.28499 -0.565837,1.73984 -1.88368,2.88933 -3.95131,3.44912 -2.06126,0.562018 -4.41531,0.409898 -7.05419,-0.447451 -2.2608,-0.73387 -3.91408,-1.74652 -4.95123,-3.04305 -1.03938,-1.29239 -1.34108,-2.60196 -0.910177,-3.93095 0.190946,-0.585568 0.586841,-1.04097 1.17973,-1.36208 0.600844,-0.323972 1.22142,-0.379346 1.86618,-0.170579 0.760921,0.247275 1.30034,0.640306 1.61381,1.16764 0.315698,0.53274 0.365025,1.12754 0.151484,1.78535 -0.160077,0.496142 -0.405761,0.960459 -0.732597,1.3885 -0.328746,0.432811 -0.585568,0.764739 -0.767604,1.00724 0.234864,0.31347 0.515555,0.622166 0.840163,0.915905 0.32429,0.293421 0.843027,0.555972 1.55908,0.788926 1.39009,0.451588 2.61469,0.399078 3.6738,-0.151802 1.06039,-0.555335 1.81876,-1.54603 2.28053,-2.96858 0.145756,-0.447132 0.246639,-0.913677 0.299149,-1.40664 0.0537832,-0.486913 0,-0.944547 -0.165487,-1.36431 -0.152439,-0.41499 -0.456998,-0.815977 -0.906676,-1.19914 -0.448405,-0.383484 -1.05689,-0.699818 -1.82767,-0.949957l-1.77071 -0.575703 0.509826 -1.57053 1.28379 0.417217c1.30257,0.422628 2.33336,0.401942 3.08983,-0.0693771 0.755192,-0.471637 1.35826,-1.39804 1.81112,-2.78941 0.140345,-0.434084 0.217042,-0.868805 0.229135,-1.30034 0.00668312,-0.43313 -0.0569656,-0.829343 -0.200493,-1.19278 -0.151484,-0.370436 -0.381892,-0.697908 -0.688679,-0.985601 -0.307105,-0.287692 -0.70491,-0.510781 -1.19278,-0.669266 -1.13581,-0.368844 -2.31459,-0.197948 -3.5325,0.519055 -1.21505,0.712547 -2.40242,1.93015 -3.55892,3.65089l-1.15459 -0.374891 2.27067 -6.5921 1.18068 0.383802 0.540696 0.970961c0.787017,-0.109794 1.65328,-0.144801 2.59623,-0.105975 0.946138,0.0413717 1.96897,0.239637 3.07837,0.600207 2.1701,0.705228 3.74318,1.66155 4.72242,2.86515 0.981145,1.19882 1.25738,2.4613 0.829661,3.78073 -0.140345,0.429311 -0.36598,0.850665 -0.680723,1.27234 -0.314743,0.417536 -0.726868,0.758693 -1.22237,1.0222 -0.506644,0.280373 -1.13804,0.486276 -1.88368,0.61962 -0.749782,0.132071 -1.65996,0.147983 -2.72353,0.0400987l-0.0547379 0.170579c0.622803,0.21195 1.25452,0.505689 1.89228,0.886627 0.636169,0.374573 1.17973,0.828388 1.63609,1.36176zm26.6265 5.30226l0 0c0.394622,1.24433 0.526375,2.55231 0.39144,3.91408 -0.137163,1.36558 -0.605299,2.74103 -1.40441,4.12603 -0.710638,1.22969 -1.59536,2.2834 -2.65097,3.16207 -1.05816,0.872306 -2.20829,1.49002 -3.45358,1.84072 -1.30034,0.362479 -2.63792,0.459544 -4.01496,0.284192 -1.37068,-0.173443 -2.82537,-0.703 -4.35262,-1.58485 -1.23033,-0.710638 -2.27831,-1.58644 -3.14457,-2.62487 -0.861804,-1.0397 -1.49097,-2.18602 -1.88018,-3.44276 -0.39144,-1.23065 -0.516509,-2.52972 -0.375209,-3.89307 0.139391,-1.36017 0.590024,-2.70634 1.35635,-4.03469 0.800383,-1.38531 1.76084,-2.50362 2.88552,-3.35874 1.12499,-0.849074 2.32986,-1.44069 3.62034,-1.76562 1.27648,-0.310924 2.59623,-0.358024 3.97232,-0.134299 1.36813,0.22468 2.68948,0.704273 3.96341,1.44101 1.26311,0.728778 2.33527,1.61954 3.20344,2.67452 0.873897,1.0537 1.50211,2.18697 1.88368,3.3963zm-10.0594 10.3397l0 0c0.775241,-0.513963 1.50657,-1.18832 2.19174,-2.00907 0.692816,-0.82266 1.36717,-1.81272 2.03262,-2.96539 0.565837,-0.977644 1.04607,-1.97088 1.44387,-2.97972 0.395895,-1.0047 0.637124,-1.96802 0.717321,-2.88838 0.073196,-0.918769 -0.0416899,-1.76243 -0.356433,-2.52494 -0.309333,-0.764739 -0.888218,-1.38691 -1.73125,-1.87414 -1.44164,-0.832207 -2.92625,-0.782243 -4.46337,0.149575 -1.53489,0.934045 -3.02172,2.6446 -4.45796,5.13327 -0.611664,1.05975 -1.10717,2.10455 -1.48652,3.13947 -0.378392,1.03111 -0.594161,1.99762 -0.649217,2.90111 -0.0502825,0.915905 0.0846528,1.72679 0.405761,2.4387 0.322381,0.712866 0.88599,1.29939 1.68828,1.76212 0.785107,0.454452 1.5769,0.64508 2.3706,0.576657 0.798155,-0.0719231 1.5613,-0.359615 2.29454,-0.859258zm31.8937 8.16168l0 0c0.105339,1.30066 -0.061421,2.60451 -0.498688,3.90135 -0.440767,1.29971 -1.20614,2.53481 -2.29804,3.70436 -0.96937,1.03875 -2.06795,1.86586 -3.2935,2.48485 -1.22683,0.611664 -2.48676,0.955367 -3.77819,1.01679 -1.3484,0.060148 -2.67516,-0.145756 -3.97645,-0.626622 -1.29716,-0.476729 -2.59528,-1.32071 -3.88448,-2.52399 -1.03938,-0.968097 -1.863,-2.05713 -2.47466,-3.26422 -0.604026,-1.20678 -0.961414,-2.46575 -1.05689,-3.77692 -0.104066,-1.28793 0.0668312,-2.58223 0.509826,-3.87875 0.440767,-1.29302 1.18418,-2.50394 2.22993,-3.62543 1.09094,-1.16986 2.27831,-2.04312 3.5656,-2.62392 1.2892,-0.57443 2.59623,-0.879307 3.92617,-0.905403 1.31339,-0.0165487 2.61023,0.234546 3.89976,0.761875 1.28284,0.527966 2.46257,1.29207 3.53919,2.29581 1.06548,0.994511 1.90978,2.10327 2.51826,3.32692 0.615165,1.22301 0.97128,2.46862 1.07216,3.73332zm-12.127 7.81161l0 0c0.870396,-0.3262 1.73443,-0.819477 2.58732,-1.46456 0.859894,-0.646035 1.7392,-1.45883 2.64683,-2.43202 0.770786,-0.82616 1.46265,-1.68574 2.07654,-2.57873 0.611664,-0.890127 1.06357,-1.77453 1.3484,-2.6532 0.279736,-0.878034 0.356433,-1.72615 0.221498,-2.54022 -0.128252,-0.814704 -0.553744,-1.55144 -1.26502,-2.21561 -1.21824,-1.13549 -2.67516,-1.42064 -4.38349,-0.858621 -1.70356,0.565519 -3.53791,1.89737 -5.49702,3.99905 -0.835708,0.894583 -1.55271,1.8019 -2.15546,2.72448 -0.600844,0.919406 -1.02856,1.81335 -1.28411,2.68057 -0.255231,0.880898 -0.306787,1.70165 -0.154666,2.46862 0.153712,0.766967 0.571247,1.46424 1.24879,2.09627 0.663538,0.618984 1.39263,0.982736 2.18092,1.09539 0.7937,0.108521 1.60077,0.000318244 2.42947,-0.321426zm17.8185 29.3729l0 0 -5.70993 -8.79339 0.903175 -0.585887c0.137163,0.185218 0.334474,0.437903 0.592251,0.764739 0.256504,0.326518 0.460499,0.536559 0.609437,0.636487 0.30615,0.210996 0.580158,0.306787 0.842073,0.294375 0.257777,-0.0165487 0.534968,-0.117432 0.826797,-0.307105l12.8879 -8.36981 -4.35262 -6.70221 -12.7619 8.2877c-0.26096,0.168669 -0.460499,0.377755 -0.594161,0.62153 -0.138436,0.246002 -0.173443,0.544515 -0.114249,0.887581 0.0318244,0.186809 0.120614,0.471001 0.268598,0.845255 0.144801,0.378392 0.280691,0.682633 0.415626,0.91495l-0.904448 0.586523 -5.71215 -8.79721 0.903494 -0.586523c0.129207,0.190628 0.341794,0.456998 0.624712,0.79911 0.282919,0.34975 0.511099,0.588751 0.684224,0.717003 0.282919,0.209404 0.558199,0.305514 0.834435,0.282919 0.274963,-0.0267325 0.551516,-0.127616 0.827752,-0.307423l11.6019 -7.53378c0.27178,-0.177262 0.463681,-0.374573 0.587478,-0.590024 0.120933,-0.218633 0.154666,-0.520647 0.0977008,-0.909859 -0.0426446,-0.291829 -0.142573,-0.642534 -0.298194,-1.05689 -0.150211,-0.412762 -0.275281,-0.707774 -0.364071,-0.879307l0.899038 -0.584295 12.8049 19.7161 -0.900311 0.583659c-0.174398,-0.233909 -0.388257,-0.493278 -0.639033,-0.767922 -0.251094,-0.274008 -0.493596,-0.509826 -0.733552,-0.706819 -0.288329,-0.227226 -0.574748,-0.322699 -0.855121,-0.280054 -0.277508,0.0394622 -0.547379,0.141618 -0.800383,0.305514l-11.6172 7.5446c-0.276554,0.179489 -0.479275,0.384757 -0.604345,0.606572 -0.129207,0.223407 -0.163259,0.526057 -0.104066,0.902221 0.0416899,0.23741 0.144801,0.551516 0.31347,0.940728 0.164532,0.391758 0.312515,0.705864 0.44395,0.934682l-0.903175 0.586205zm9.17656 22.6233l0 0 -3.99173 -9.87765 0.998649 -0.404488c0.217042,0.449996 0.519692,0.957913 0.904448,1.5228 0.382529,0.570611 0.673085,0.812794 0.864986,0.736098 0.0703318,-0.0295967 0.147029,-0.0652399 0.224998,-0.110749 0.0821069,-0.0486913 0.180762,-0.12857 0.300422,-0.248867l3.13343 -3.0666 -2.52845 -6.25922c-0.406715,-0.00222771 -0.88249,0.00127297 -1.42414,0.0181399 -0.537195,0.0136845 -1.01742,0.0302331 -1.43496,0.052192 -0.539423,0.0305514 -0.923225,0.0728778 -1.14918,0.12857 -0.225953,0.0566474 -0.380301,0.103747 -0.467182,0.137799 -0.269552,0.109476 -0.41849,0.408307 -0.442677,0.900629 -0.0254595,0.49105 0.111704,1.23224 0.418809,2.22961l-0.998967 0.403215 -3.0039 -7.43544 0.998649 -0.403533c0.12507,0.274008 0.301377,0.572839 0.515236,0.897765 0.217042,0.323654 0.429947,0.562018 0.639351,0.716048 0.346567,0.266052 0.717958,0.460499 1.11385,0.584295 0.393667,0.120933 0.829025,0.182672 1.3048,0.178853 2.79227,0.0181399 5.59027,0.0388257 8.3959,0.0623758 2.80023,0.0251412 5.89324,0.0490095 9.27426,0.0779697l1.03175 2.55518c-3.43258,3.3301 -6.14847,5.95052 -8.15149,7.85998 -1.99857,1.90819 -3.65439,3.5115 -4.95346,4.80643 -0.210677,0.217679 -0.38603,0.449996 -0.526375,0.70491 -0.13589,0.252685 -0.237728,0.578249 -0.299149,0.968734 -0.0372345,0.294375 -0.0318244,0.61071 0.0318244,0.95664 0.0569656,0.341475 0.126979,0.642534 0.21927,0.905403l-0.998967 0.402896zm3.4889 -12.4837l0 0 5.50593 -5.28348 -7.61652 0.0585568 2.11059 5.22492zm14.4842 29.5025l0 0c-1.08107,0.210359 -2.05808,0.166123 -2.92402,-0.126024 -0.867532,-0.296285 -1.61954,-0.787335 -2.25635,-1.47856 -0.66672,-0.713184 -1.21155,-1.5699 -1.63927,-2.56504 -0.429629,-1.00024 -0.767604,-2.14719 -1.02061,-3.44912l-0.304877 -1.56512 -5.39741 1.04989c-0.322381,0.0623758 -0.593206,0.176943 -0.808975,0.344021 -0.21736,0.166441 -0.360888,0.438858 -0.44204,0.808657 -0.0340521,0.194129 -0.0560109,0.505371 -0.0560109,0.92227 -0.00413717,0.422628 0.00763785,0.779379 0.0385075,1.06007l-1.05689 0.206858 -2.02276 -10.4037 1.05784 -0.205585c0.074469,0.259369 0.18299,0.597662 0.31347,1.02188 0.133981,0.419763 0.253322,0.713184 0.360888,0.86976 0.211632,0.323017 0.430902,0.519374 0.662265,0.594797 0.229135,0.0703318 0.531785,0.0735143 0.899993,0.00127297l13.5381 -2.63124c0.319198,-0.061421 0.581113,-0.17026 0.790517,-0.325563 0.204949,-0.150211 0.352932,-0.423264 0.435357,-0.813749 0.061421,-0.274644 0.0942001,-0.626622 0.0951548,-1.06293 0.00668312,-0.437585 0.00127297,-0.761239 -0.011775,-0.974144l1.05243 -0.205585 2.05904 10.5921c0.482457,2.48007 0.450633,4.41245 -0.101838,5.78885 -0.550561,1.38277 -1.63609,2.23057 -3.26072,2.54595zm-1.71501 -5.14314l0 0c1.44069,-0.280691 2.45589,-0.77906 3.04464,-1.49702 0.584614,-0.718276 0.733552,-1.82067 0.444268,-3.30687l-0.217042 -1.12213 -8.43123 1.63927 0.109794 0.567428c0.287056,1.47729 0.847483,2.53799 1.6816,3.17607 0.827752,0.639033 1.95147,0.819159 3.36797,0.543242zm-12.9831 33.0668l0 0 0.13048 -7.49655c0.950594,-0.303604 1.90214,-0.607209 2.85719,-0.91495 0.950594,-0.302968 1.83181,-0.625985 2.64651,-0.969052 0.602117,-0.248867 1.11385,-0.493914 1.53712,-0.741189 0.423264,-0.246321 0.781606,-0.549925 1.08426,-0.912086 0.29724,-0.343385 0.52542,-0.757738 0.675313,-1.24879 0.150211,-0.487549 0.230408,-1.06898 0.242502,-1.73602l-6.04758 -0.105975c-0.311561,-0.0050919 -0.594479,0.0547379 -0.841118,0.182354 -0.252049,0.127934 -0.448405,0.354842 -0.59066,0.672449 -0.0779697,0.171852 -0.163577,0.471955 -0.250139,0.893946 -0.0932454,0.417217 -0.150211,0.764103 -0.168987,1.02665l-1.07662 -0.0184581 0.184263 -10.567 1.07662 0.0190946c0.000954731,0.229772 0.027369,0.568383 0.0712866,1.01138 0.0394622,0.448087 0.0942001,0.773969 0.16676,0.977008 0.116159,0.33161 0.290556,0.565201 0.534013,0.701727 0.242183,0.131435 0.528284,0.201766 0.85703,0.20654l13.8321 0.242183c0.324609,0.0050919 0.593206,-0.050919 0.815658,-0.160395 0.223725,-0.113613 0.419763,-0.34434 0.590978,-0.699181 0.127297,-0.266688 0.241229,-0.612301 0.343067,-1.0432 0.106612,-0.426446 0.167714,-0.739916 0.190946,-0.932772l1.07216 0.0178216 -0.185218 10.5682 -1.07248 -0.0194129c-0.0140027,-0.281646 -0.0547379,-0.625985 -0.122524,-1.02284 -0.0636487,-0.395259 -0.129525,-0.697908 -0.191901,-0.910495 -0.110749,-0.359615 -0.295012,-0.59798 -0.556926,-0.720822 -0.260005,-0.117432 -0.537513,-0.178853 -0.829025,-0.183627l-6.50363 -0.113613 -0.0165487 0.894265c-0.00541014,0.366298 0.0394622,0.752646 0.140345,1.15427 0.0964278,0.401942 0.301377,0.762512 0.620575,1.09317 0.638078,0.669903 1.29143,1.17973 1.94924,1.52057 0.662265,0.340521 1.33981,0.640306 2.03071,0.891719 0.766331,0.287056 1.4165,0.547061 1.95274,0.777787 0.53274,0.229454 1.1094,0.677541 1.7322,1.3379 0.31888,0.3297 0.565837,0.729733 0.745327,1.19787 0.179808,0.47482 0.265415,0.989101 0.25555,1.54762 -0.0152757,0.921952 -0.264142,1.64277 -0.743417,2.16597 -0.474501,0.522874 -1.07662,0.780652 -1.80126,0.767922 -0.799428,-0.014321 -1.42096,-0.249821 -1.85504,-0.705546 -0.43854,-0.459226 -0.650172,-1.03716 -0.638078,-1.73729 0.00763785,-0.437267 0.142573,-0.867532 0.40767,-1.2822 0.262233,-0.409261 0.768558,-0.899038 1.51325,-1.46392 -0.281964,-0.283555 -0.714775,-0.53083 -1.3048,-0.747873 -0.588751,-0.216406 -1.10303,-0.419445 -1.53712,-0.600844 -0.905721,-0.3733 -1.5909,-0.732915 -2.05585,-1.08553 -0.469091,-0.346886 -0.85162,-0.743099 -1.15968,-1.19119l-0.249185 -0.00381892c-0.361843,1.2822 -0.939455,2.33591 -1.73538,3.16843 -0.794973,0.832844 -1.75639,1.49765 -2.88583,2.00525 -0.493278,0.216724 -1.01392,0.449042 -1.56449,0.683587 -0.549289,0.229772 -1.01838,0.43854 -1.40759,0.615165 -0.602117,0.271462 -1.00215,0.541651 -1.19946,0.810885 -0.197311,0.270825 -0.314743,0.488822 -0.345613,0.662265 -0.0458271,0.211632 -0.0973826,0.469091 -0.1413,0.779379 -0.0471001,0.304877 -0.0843346,0.557563 -0.101838,0.760284l-1.07662 -0.0190946zm-112.573 -159.338l0 0 0.000954731 0c39.7731,0.000636487 75.8801,16.2202 102.042,42.3827 26.1619,26.1625 42.3818,62.2679 42.3827,102.041l0 0.00286419 0 0.000954731c-0.000954731,39.7735 -16.2209,75.8795 -42.3837,102.042 -26.1619,26.1619 -62.2679,42.3815 -102.039,42.3815l-0.00254595 0 -0.00127297 0c-39.7744,0 -75.8804,-16.2196 -102.043,-42.3815 -26.1625,-26.1625 -42.3818,-62.2685 -42.3824,-102.041l0 -0.00222771 0 -0.00159122c0.000636487,-39.7735 16.2199,-75.8804 42.3827,-102.043 26.1625,-26.1619 62.2679,-42.3815 102.04,-42.3821l0.00350068 0zm0.000954731 1.2542l0 0 -0.000954731 0 -0.00350068 0c-39.4256,0.000636487 -75.2175,16.0796 -101.153,42.0145 -25.9359,25.9353 -42.0152,61.7288 -42.0152,101.156l0 0.00159122 0 0.00222771c0.000954731,39.4269 16.0793,75.2178 42.0148,101.154 25.9353,25.9346 61.7278,42.0148 101.156,42.0148l0.00127297 0 0.00254595 0c39.4262,0 75.2175,-16.0802 101.153,-42.0148 25.9349,-25.9343 42.0145,-61.7284 42.0155,-101.155l0 -0.000954731 0 -0.00286419c-0.000954731,-39.4262 -16.0805,-75.2191 -42.0155,-101.155 -25.9349,-25.9353 -61.7284,-42.0142 -101.155,-42.0148zm-75.8651 250.367l0 0c-1.03716,1.59822 -1.90596,1.69401 -3.78742,0.471955l-0.638715 0.983691c1.60586,0.969052 3.1172,1.91424 4.61199,2.88488 1.46965,0.954413 2.94694,1.95052 4.30552,2.90716l0.638715 -0.984646c-1.77835,-1.15427 -2.0444,-1.98584 -1.0066,-3.58438l2.1927 -3.37656 2.54372 -0.474501 0.511418 7.11147c0.0324609,0.571247 0.0665129,1.25261 -0.252049,1.74207 -0.451269,0.695362 -1.59185,0.139391 -2.3655,-0.363116l-0.638078 0.983373c1.47633,0.885354 2.93612,1.79744 4.35357,2.71844 1.44355,0.937228 2.87056,1.90055 4.25428,2.87247l0.638397 -0.984964c-0.541969,-0.461772 -0.855757,-0.994511 -1.0222,-2.09309 -0.683269,-4.36376 -0.754556,-8.88059 -1.11513,-13.2914 2.10677,-0.647944 4.29502,-1.53425 6.46257,-1.99634 1.59917,-0.317607 2.32541,-0.138754 3.63021,0.561382l0.635214 -0.978281c-1.14122,-0.66863 -2.26621,-1.36272 -3.37466,-2.08195 -1.10781,-0.720185 -2.1997,-1.46519 -3.27473,-2.23725l-0.635533 0.979872c0.962051,0.661947 1.72965,1.34299 1.17686,2.19365 -0.468455,0.722095 -1.51325,1.03175 -2.03071,1.20933 -2.63187,0.892992 -5.4531,1.62495 -8.35899,2.37633l4.03374 -6.2118c1.03747,-1.59695 1.90596,-1.69306 3.5812,-0.605936l0.635851 -0.978599c-1.3223,-0.785425 -2.83364,-1.73061 -4.30329,-2.68502 -1.49415,-0.970643 -2.97208,-1.96675 -4.51142,-3.03954l-0.635851 0.979554c1.88114,1.22206 2.14783,2.05363 1.11003,3.65185l-7.36511 11.34zm33.7335 10.4343l0 0 -0.823296 -7.88958c-0.0547379,-0.519055 -0.121251,-1.17559 0.0162304,-1.5177 0.368526,-0.912405 1.4862,-0.560427 2.66561,-0.116159l0.437267 -1.08298c-1.09349,-0.409261 -2.88329,-1.06612 -4.70746,-1.80253 -1.48174,-0.599571 -3.70945,-1.5648 -4.69505,-1.99634l-0.436949 1.08171c1.46965,0.627576 1.5298,1.3815 1.69051,2.70571l1.33153 10.9788 -1.65773 4.10216c-0.71382,1.76784 -1.5473,2.02689 -3.62734,1.18609l-0.439494 1.08807c1.76084,0.645716 3.42494,1.28443 5.0779,1.95147 1.62432,0.657491 3.26486,1.35381 4.89459,2.07845l0.439176 -1.08807c-2.07972,-0.840481 -2.49917,-1.60649 -1.78535,-3.37243l1.83022 -4.53115 8.18173 -6.14051c1.80794,-1.35731 2.24712,-1.37895 3.49591,-1.1059l0.437585 -1.0833c-0.735143,-0.230727 -1.5734,-0.536559 -3.22572,-1.2036 -1.39613,-0.564246 -2.49598,-1.04225 -3.18435,-1.38691l-0.43854 1.08298c0.986237,0.430902 2.09118,0.977008 1.59631,2.20288 -0.414353,1.0257 -1.89673,2.15037 -3.25181,3.12611l-3.82147 2.73276zm9.91297 13.5155l0 0c1.85122,0.29724 3.60697,0.607527 5.357,0.948048 1.71883,0.334474 3.46281,0.704273 5.20106,1.10462l0.223725 -1.15172c-2.20225,-0.427083 -2.76013,-1.09985 -2.39669,-2.96953l2.57968 -13.2733c0.363434,-1.87064 1.13263,-2.28499 3.33583,-1.85632l0.222452 -1.14663c-1.7618,-0.2791 -3.51723,-0.589387 -5.2367,-0.923861 -1.75002,-0.340521 -3.49304,-0.710638 -5.32199,-1.12881l-0.222452 1.14695c2.20193,0.427083 2.76013,1.09953 2.39606,2.96953l-2.57968 13.2733c-0.362798,1.87032 -1.13263,2.28499 -3.33519,1.85632l-0.223089 1.15141zm39.3228 -16.4379l0 0c-1.29048,-0.0372345 -2.58223,-0.0432811 -3.90167,-0.11234 -1.31944,-0.0690589 -2.60546,-0.197948 -3.92394,-0.298831l-0.0607845 1.16795c1.25706,0.0951548 2.63442,0.229135 2.5555,1.73315 -0.0337338,0.644125 -0.260642,1.46424 -0.57252,2.12364l-4.45732 9.89101 -2.67325 -8.29502c-0.501552,-1.59599 -1.167,-3.56942 -1.11863,-4.49042 0.0579203,-1.10462 1.01679,-1.20773 2.64492,-1.15268l0.0607845 -1.16604c-1.78121,-0.0636487 -3.56433,-0.0942001 -5.34427,-0.188718 -1.77994,-0.0932454 -3.58692,-0.248867 -5.36559,-0.372663l-0.0649217 1.22747c1.53616,0.0499643 2.34546,0.461453 2.8782,2.0584l6.2328 18.4575 1.44292 0.075742 8.53434 -17.8073c0.827752,-1.71056 2.52081,-1.71438 3.07328,-1.68542l0.060148 -1.16541zm10.8292 4.25619l0 0c-0.186491,-2.5189 0.352932,-4.29947 4.0191,-5.21442l3.87684 -0.966824 -6.81073 20.0688 0.314743 1.25611c2.67611,-0.698863 5.3745,-1.43432 8.05825,-2.10327 2.68279,-0.669903 5.41078,-1.28539 8.10344,-1.92569l-1.18291 -6.2659 -1.25324 0.312515c0.594161,3.77819 -1.69497,5.26821 -4.73642,6.02562l-3.90517 0.97478 6.76459 -19.993 -0.326836 -1.31307c-2.55677,0.669903 -5.10686,1.36908 -7.66999,2.00812 -2.56568,0.639033 -5.14441,1.21919 -7.71645,1.82863l1.21155 5.62082 1.25324 -0.313152zm24.7186 -1.97184l0 0c-1.25388,-3.27059 -2.39447,-9.15301 2.45398,-11.0141 4.85035,-1.86236 7.93891,3.27154 9.19406,6.54213 1.6084,4.18904 2.25858,9.14091 -2.47562,10.9571 -4.73419,1.81781 -7.56497,-2.29581 -9.17242,-6.48517zm-5.08712 2.18251l0 0c2.07017,5.39455 8.42136,8.13049 14.7904,5.6851 6.36869,-2.44475 9.25771,-8.7272 7.18658,-14.1202 -2.01512,-5.25007 -7.73491,-8.91528 -14.9645,-6.13924 -7.22954,2.7754 -9.02762,9.32422 -7.0125,14.5743zm29.2931 -13.7822l0 0c-2.05999,-2.8346 -4.68264,-8.22246 -0.479911,-11.2751 4.20113,-3.05227 8.51429,1.10621 10.5733,3.94017 2.63792,3.63021 4.54675,8.24537 0.44395,11.2254 -4.10152,2.98099 -7.9004,-0.261596 -10.5374,-3.89053zm-4.34816 3.42462l0 0c3.39439,4.675 10.2357,5.67365 15.755,1.66314 5.52025,-4.01019 6.68375,-10.8257 3.28905,-15.4991 -3.30655,-4.54993 -9.77835,-6.60897 -16.0443,-2.05713 -6.26463,4.55216 -6.30632,11.3432 -2.99976,15.8931zm-62.5107 -211.775l0 0c56.7066,0 102.957,46.2507 102.957,102.959 0,56.7066 -46.2507,102.957 -102.957,102.957 -56.7075,0 -102.958,-46.2507 -102.958,-102.957 0,-56.7082 46.251,-102.959 102.958,-102.959zm-2.56568 115.421l0 0c-0.451588,-0.225953 -2.88997,-0.812476 -4.37999,-1.39964 -4.96778,-2.79959 -9.84391,-5.5088 -15.3985,-6.95426 -1.67046,-0.812476 -3.11561,-2.16724 -4.42518,-3.47713 -0.13589,-1.03843 -0.225953,-2.07654 -0.316334,-3.06978 0.225953,-2.52845 1.80635,-4.10884 3.97454,-5.32867 0.451269,0 0.902857,0 1.399,0 5.59981,1.67142 12.7794,5.23734 18.6497,5.23734 1.21951,-0.270189 5.37354,-0.630759 6.41197,-2.03135 0,-1.17368 -1.4897,-2.84446 -2.03167,-3.97391 -0.541651,-0.36057 -1.03843,-0.270189 -1.62622,-0.316334 -2.34768,1.17464 -5.46361,4.42518 -8.35358,2.70984 -4.28961,-0.993875 -8.57921,-2.25826 -12.8239,-3.29637 -2.57364,-1.62495 -3.25118,-2.66465 -4.83157,-5.1931 -0.587796,-1.80571 -0.587796,-1.80571 -0.902857,-3.34156 0.224998,-2.52845 0.315061,-4.37903 1.71501,-6.54786 1.17432,-1.3083 2.34864,-2.57395 3.56719,-3.8377 -0.0442359,-0.270825 -0.0897447,-0.541969 -0.134935,-0.813112 -2.34832,-0.180762 -2.57427,-0.0442359 -2.75472,-2.30345 1.6711,-2.93389 3.79346,-5.77962 7.08951,-6.99913 2.30345,0 3.74827,0.0910177 5.87032,0.904448 0.948366,0.766967 1.89673,1.53489 2.89029,2.30249 1.21887,1.67078 1.21887,1.67078 2.39319,3.61238 0.902857,2.89061 0.902857,2.89061 1.53489,4.24537 -0.0903812,2.79832 -0.135254,5.59791 -0.180126,8.44269 0.0897447,0.0903812 0.180126,0.181399 0.316016,0.316016 1.12881,-0.225635 1.53521,-1.89641 2.07654,-2.8887 1.40027,-1.89673 1.40027,-1.89673 1.98743,-2.93516 0.993238,-0.767922 0.993238,-0.767922 2.88997,-1.80635 0.992602,0.135572 1.53489,0.451906 4.65049,1.08266 0,-0.947093 -3.38643,-4.51524 -4.2441,-5.68829 -1.9868,-4.69696 0.767922,-8.40004 4.87677,-10.4317 0,-0.94773 7.13407,-3.43162 8.57921,-3.97359 1.4461,-0.360888 2.88997,-0.722095 4.37999,-1.03843 2.57427,-1.08394 5.1024,-2.25794 7.49687,-3.70308 1.80476,-0.0448724 1.89482,0.180762 2.07654,1.85122 -2.71016,5.05753 -9.57341,10.5663 -6.77318,16.7979 0.451588,2.93484 1.71565,5.73507 2.66402,8.53466 0.315698,2.30249 0.315698,2.30249 0.857348,4.10853 0.13589,-0.135254 0.316016,-0.270189 0.497733,-0.405761 1.58008,-3.34156 3.83738,-6.3671 5.77899,-9.5279 2.80023,-3.83834 2.80023,-3.83834 5.50943,-8.08243 1.58103,-3.43226 3.47777,-6.77286 4.19922,-10.5221 1.31021,-3.20567 1.58103,-6.36678 1.98648,-9.7984 -0.13589,-1.12849 -0.451588,-1.80603 -0.72114,-3.1608 0,-2.79959 2.43806,-4.47037 4.74056,-5.50943 0.225953,-0.315698 0.451906,-0.631395 0.677541,-0.902857 4.7867,-3.83834 8.71415,-9.66347 15.8033,-8.26383 3.83929,2.30345 5.78121,3.38739 5.41937,8.21864 -1.08426,2.89029 -3.74732,4.96746 -5.73411,7.22509 0,3.47713 1.17305,7.08951 1.49002,10.6118 0.179808,-0.0906994 0.405761,-0.181081 0.631395,-0.270825 1.35508,-6.68343 2.39447,-14.0435 5.55431,-20.14 0.120614,-0.138754 0.232636,-0.271462 0.342112,-0.395259 5.29112,5.52407 9.95721,11.6474 13.8945,18.2525 -0.881535,0.871033 -2.25094,1.3328 -3.66967,1.92156 -3.43162,2.84446 0.180762,4.87677 2.30249,7.04369 1.44483,2.34832 3.29669,4.74119 4.92259,6.99913 0,0.225953 0,0.451906 0,0.676904 -2.66402,4.96746 -5.77994,4.29024 -9.84455,6.05172 -1.35381,0.225953 -2.75504,0.361207 -3.83834,1.21919 -3.06978,0.857348 -6.05077,2.34832 -9.12182,3.02586 -3.88321,1.94129 -8.48819,4.83189 -11.6951,7.76578 -2.16756,2.93612 -5.37323,4.9681 -6.63729,8.62504 -0.632668,0.76824 -0.948366,1.35476 -1.35413,2.25826 -1.62591,1.98711 -1.62591,1.98711 -2.62042,3.47713 -0.36057,0.0442359 -0.677541,0.0903812 -0.993238,0.134935 -1.21919,-0.947411 -0.405761,-3.16111 -0.134935,-4.47069 0.812476,-6.95331 5.05785,-18.7395 10.1602,-23.8419 0.315698,-0.586523 0.631395,-1.17368 0.993238,-1.76116 3.56783,-3.88289 4.69696,-7.31578 5.28348,-12.5089 0.857348,-3.79219 0.766331,-8.44364 0.270825,-12.3265 -0.13589,-0.13589 -0.270825,-0.225635 -0.361843,-0.316334 -1.67078,0.316334 -4.06302,0.542287 -5.59822,-0.315698 -2.34832,0 -3.47745,0.134935 -5.14855,0 -1.44483,2.43775 -0.722413,8.08243 -0.451588,11.0618 -0.225953,0.678814 -0.451588,1.40091 -0.631714,2.12269 -0.406715,5.41873 -1.30989,10.8378 -3.47745,15.8059 -0.270825,3.02459 -1.03843,5.28189 -2.70825,7.81129 -0.768558,2.16756 -2.43934,3.97391 -3.3877,6.09564 -0.496778,0.633305 -0.993238,1.31021 -1.49002,1.98775 -2.66402,5.91519 -5.87,11.6496 -7.76769,17.8812 -0.405761,0.858303 -0.811521,1.71565 -1.17336,2.57427 -0.451588,2.30249 -0.270507,3.43098 -2.71016,3.43098 -1.89578,-2.6637 -2.34609,-5.8245 -2.57205,-8.98529 -1.03938,-2.43902 -0.542605,-6.1421 -0.587796,-8.85131 0.407034,-1.4897 0.903494,-2.93484 1.0833,-4.4691 -1.44514,0 -3.74732,3.74732 -4.28897,5.14695 -0.767604,1.03938 -0.948366,1.80571 -1.31021,3.06978 -1.0833,1.53616 -1.0833,1.53616 -2.2573,3.7941 -1.40027,1.85154 -1.40027,1.85154 -4.51492,5.28284 -4.15531,2.75408 -8.8058,6.27736 -13.9085,6.45716zm-98.2657 -12.4621l0 0c0,-55.58 45.3943,-100.832 100.831,-100.832 12.7835,0 25.0222,2.40624 36.2931,6.77891 -1.99666,2.49057 -2.55677,6.29295 -0.882808,8.97893 0.405761,2.03199 -2.03262,3.52232 -3.25181,4.87677 -1.58103,1.44483 -3.11592,2.88997 -4.65081,4.38062 -2.03262,0.722095 -3.74732,1.62527 -5.55431,2.84446 -2.70889,1.08394 -6.23185,2.16756 -8.17345,4.37999 -0.450633,1.40027 -0.857348,2.84446 -1.26406,4.28961 -1.21919,1.85186 -3.43162,2.66434 -5.3745,3.56783 0,0.722413 -6.63665,3.88321 -8.30743,4.51524 -5.77962,3.38675 -12.1919,5.59918 -18.0174,8.89618 -0.0448724,0.0903812 -0.0900629,0.179808 -0.134935,0.316334 -3.47777,1.71533 -8.57985,2.66306 -10.7477,6.18634 0,3.11465 2.12237,5.64469 2.5294,8.75934 1.62527,4.56107 0.270507,8.98593 -1.35508,13.3666 0,4.06365 -0.0906994,6.18634 2.57427,9.34713 0,1.44578 -2.0323,2.98003 -2.93516,3.97327 -0.722413,2.34864 -1.89673,4.29024 -1.89673,6.72926 0.948366,1.62463 2.43838,2.48326 3.88321,3.52137 5.1931,2.39287 10.4311,5.46329 15.8046,7.36002 3.65726,2.16851 1.35444,3.20694 -1.39964,5.78121 -0.812794,1.53457 -1.08426,3.1608 -1.80635,4.74119 -1.2647,1.12881 -1.2647,1.12881 -2.66402,1.98552 -0.771423,0.0604663 -7.42526,-1.37481 -8.19827,-1.39009 -3.05737,-0.481821 -6.92912,-0.595434 -9.72871,0.487231 -4.83189,0 -7.17958,-3.74732 -8.8058,-7.90199 -0.993238,-5.10208 -6.9985,-4.83189 -11.0628,-4.01942 -3.52232,1.94288 -5.9607,4.56139 -6.54723,8.67023 -0.903812,2.2573 -1.174,2.48326 -1.3554,3.02554 0,3.34219 -0.270507,6.77318 0,10.0708 0.722413,2.12141 1.67078,4.19891 2.70953,6.18507 1.71565,2.61978 1.71565,2.61978 2.25794,3.74923 0.135572,1.53425 0.135572,1.53425 0.135572,5.14632 -1.89673,4.60658 -4.10948,8.67023 -2.57427,13.6832 0.316016,2.93516 1.71629,5.37291 2.4387,8.12826 1.5804,4.15403 2.25794,5.59981 -1.53553,8.57921 -0.500915,0.292148 -1.07757,0.738962 -1.69688,0.80452 -24.6352,-18.9422 -39.5367,-48.6957 -39.5367,-79.9622zm79.7945 25.5314l0 0c0.0159122,0.0229135 0.0311879,0.0471001 0.0471001,0.0712866 6.99977,2.6637 12.4637,5.73507 17.1145,11.8759 0.586523,1.49002 0.586523,1.49002 1.21919,4.06397 2.61883,5.55526 4.74119,12.5538 0.180762,17.7914 -3.70308,3.07041 -6.45748,6.32159 -11.3791,6.63793 -1.67142,0.813112 1.76084,3.74796 2.43775,4.92291 -0.270825,2.93484 -2.57332,5.19214 -3.61207,7.90199 0.948366,3.02554 0.993238,3.79251 -0.812476,6.68248 -1.53616,0.632668 -3.2063,1.9416 -4.51651,2.93484 -1.0833,0.316334 -2.12141,0.677541 -3.1608,1.03843 -3.02491,0 -3.02491,0 -5.55367,0.27178 -4.06397,-1.21919 -14.9921,-2.57427 -11.6503,-9.30258 4.96651,-3.11497 12.1922,-2.07654 17.7917,-2.07654 0.316016,-0.135572 0.406079,-0.497733 0.451588,-0.813749 -2.5294,-0.541014 -2.5294,-0.541014 -6.32191,-1.76052 -0.857667,-0.541651 -1.31021,-0.677222 -2.25794,-0.767604 -4.471,2.66434 -6.86388,4.60594 -11.741,1.98711 -2.57332,-1.76116 -4.42518,-3.61238 -4.42518,-6.86388 0.497415,-1.21919 0.948366,-1.98711 0.857985,-3.34156 -4.47005,-2.07718 -9.16669,-5.59886 -9.16669,-10.9727 -1.49002,-2.98099 -1.17432,-8.89586 0.181399,-11.8772 1.30894,-8.03692 8.85036,-11.4237 11.74,-18.3779 1.62591,-1.80508 2.25794,-2.0323 3.29637,0.316334 0,2.70921 0,2.70921 -0.225953,4.20018 0.225953,-0.136527 0.451588,-0.226908 0.676904,-0.316334 1.94224,-2.61978 5.10335,-4.28961 8.21864,-5.1931 2.43616,-0.0623758 4.24887,-0.234546 6.42916,0.269234 1.02793,0.23741 2.51158,0.541014 3.59934,0.56902 0.149575,0.00381892 0.333838,0.0999285 0.581113,0.128889zm119.139 -48.8157l0 0c1.78057,7.47745 2.72798,15.2738 2.72798,23.2843 0,36.1388 -19.1847,67.9377 -47.8877,85.7425 -0.588751,0.0722413 -1.17877,0.138436 -1.77294,0.1884 -0.858303,-0.451588 -1.17432,-0.677541 -1.58103,-1.49002 0.181081,-4.28961 1.17336,-8.39909 2.25858,-12.5541 0.315698,-2.6637 0.947411,-5.32772 1.35413,-7.94654 1.31021,-4.65081 1.80571,-9.2122 3.88321,-13.6816 0.812476,-1.49161 1.62622,-2.98099 2.43838,-4.42677 1.53616,-4.921 5.55335,-9.61732 8.57921,-13.7262 2.98099,-3.34219 5.32835,-7.45199 8.26447,-10.883 1.66982,-2.98003 4.60499,-5.41842 5.73411,-8.53498 -0.993238,-1.35444 -1.76084,-2.75408 -2.43838,-4.28961 -1.71565,-2.07654 -2.61787,-4.78607 -4.06302,-7.04337 0.631395,-6.68407 9.07567,4.10853 11.5141,4.10853 2.80023,-4.19922 2.80023,-4.19922 3.52168,-5.05753 0.315698,-0.993875 0.632668,-1.98616 0.949321,-2.9358 -1.40123,-2.8887 -2.93612,-5.96039 -4.69696,-8.62408 0.587796,-4.69632 5.23765,-0.36057 7.04432,1.12945 1.12817,0 1.31021,-0.632668 1.85186,-1.49002 0.676586,-3.38675 1.80571,-7.08983 1.62463,-10.6128 0.0913359,-0.314743 0.225953,-0.586841 0.361843,-0.85703 0.114249,-0.115204 0.223725,-0.213223 0.332246,-0.299786zm-74.0515 121.199l0 0c-1.61159,0.396213 -3.23781,0.754874 -4.87899,1.0728 -0.326836,-0.850983 -0.21386,-1.77835 0.43313,-2.94153 0.0897447,-1.53616 0.0897447,-3.2515 2.25858,-2.66497 1.00756,1.29111 2.12364,2.95553 2.18729,4.5337zm-7.04751 1.46901l0 0c-5.53139,0.946775 -11.2101,1.44578 -17.0034,1.44578 -6.42598,0 -12.7116,-0.612301 -18.8079,-1.77166 0.264779,-1.03079 1.02061,-1.87668 2.06317,-2.38046 3.07073,-3.92872 7.4504,-6.59242 12.598,-6.90811 5.64469,-1.67142 11.7858,0.0455088 16.6626,3.02522 0.903494,1.30989 2.39319,2.39287 3.65757,3.38675 0.782879,1.1635 1.06675,2.23821 0.829979,3.20249zm-74.9757 -67.6405l0 0c-3.9284,-1.94097 -4.15435,-6.41102 -2.98003,-10.2506 1.39964,-2.25762 3.9284,-5.50784 6.54691,-6.23057 2.66497,0.134617 6.54818,0.767285 8.21864,3.02522 0.13589,2.0323 0.13589,2.0323 0,2.84478 -2.61883,3.1608 -5.41842,6.27672 -8.30839,9.16733 -1.17368,0.451588 -2.348,0.94773 -3.47713,1.44387zm49.3558 55.0902l0 0c-1.9868,-1.30957 -0.496778,-3.43098 0.180126,-5.23734 2.75472,-5.19278 5.91551,-10.9737 9.39264,-15.7594 0.993557,-2.34832 1.08394,-4.42486 3.25086,-6.0514 5.19278,0 -0.0442359,11.3349 -1.44451,13.1855 -1.21919,2.66497 -1.21919,2.66497 -2.57427,5.1931 -1.89673,2.30377 -5.10208,6.72863 -7.54078,8.44428 -0.451906,0.0445541 -0.857985,0.134935 -1.26406,0.225316zm8.57921 -50.1231l0 0c-1.85154,-0.992284 -2.98003,-2.25794 -4.56075,-3.56656 -1.53521,-1.94129 -3.11561,-4.471 -3.92808,-5.37386 -0.948366,-3.29637 -4.4255,-7.04369 -1.35508,-10.1154 0.632668,-0.405442 1.31021,-0.812158 1.98711,-1.21792 3.70245,0 8.71447,0.631077 10.5663,4.37903 2.30281,2.30345 5.23765,5.50912 4.28929,9.0308 -1.98648,2.43902 -3.88321,5.91615 -6.99881,6.86388zm21.9906 55.5421l0 0c-3.02491,-0.993875 -2.48421,-4.33448 -2.48421,-7.04369 -0.811521,-2.61978 -1.58008,-5.82577 -3.02395,-8.17409 -2.16851,-2.34832 -3.83834,-4.92227 -5.55431,-7.58597 -0.994193,-5.28348 -0.13589,-11.1083 -2.84605,-15.9402 -0.586523,-1.53489 -1.12945,-3.07041 -1.66982,-4.60467 0.0448724,-1.44578 0.0897447,-2.84637 0.134935,-4.24537 0.677541,-2.57427 1.53489,-4.87677 2.71016,-7.22509 0.586523,-2.88997 0.586523,-2.88997 0.902221,-3.74732 0.0448724,-2.21307 0.0910177,-4.42613 0.136208,-6.59369 -0.587796,-1.17305 -1.12849,-2.34864 -1.6711,-3.47713 -0.812476,-0.902857 -1.62591,-1.76052 -2.43838,-2.61883 -3.97391,-2.88997 -3.97391,-2.88997 -4.74088,-3.6127 -1.35476,-3.02522 9.84232,-7.13407 12.056,-7.85712 0.903494,0 1.80571,0 2.75504,0 2.79927,1.03843 3.83738,3.97327 5.0117,6.45812 1.53616,7.36034 -0.0448724,15.2623 2.34737,22.4868 1.31021,2.16756 2.43838,3.92904 4.2912,5.69051 2.84414,5.05625 6.59146,9.66219 9.52758,14.6755 2.21243,1.98616 4.10916,4.38062 6.00589,6.63793 1.35413,3.07041 2.12141,6.36678 2.39224,9.75353 -0.0439176,1.26343 -0.0897447,2.57364 -0.134617,3.88385 0.902221,2.39287 2.03135,5.23734 0,7.26964 -3.6127,1.39995 -7.58597,1.76116 -11.1996,3.38675 -4.15403,0.858303 -8.26224,1.94097 -12.5076,2.48326zm-11.74 -137.274l0 0c-0.813431,-0.587478 -0.813431,-0.587478 -0.993238,-0.903494 0,-3.92808 8.26224,-3.56656 5.87,-8.89555 0.269552,-2.07654 2.88997,-3.83802 0,-4.92164 -2.21243,0.361207 -3.74732,1.39995 -4.69696,-1.08394 1.62591,-2.66402 5.19246,-4.10916 7.58693,-6.09596 2.25762,-1.12913 2.75408,0.270825 3.88353,2.25762 1.30894,0.948366 2.39224,2.16756 3.47649,3.34188 0.858621,2.66402 1.7618,3.38643 0.270825,5.73507 -1.39995,4.56043 -6.41165,6.45716 -10.0692,8.94042 -1.67078,0.722095 -3.52264,1.39964 -5.32835,1.62559zm50.574 68.6366l0 0c-2.52845,-2.52845 -3.20599,-6.00558 -4.60626,-9.34745 -0.63235,-3.25118 -1.62559,-6.27545 -3.1608,-9.16605 -0.812158,-2.57427 -1.89641,-4.01942 1.40027,-4.28961 2.2137,1.94129 4.37999,4.19922 6.32159,6.41229 3.83865,5.46297 6.27704,7.26932 4.33416,13.7274 -1.399,1.35476 -2.25635,2.52845 -4.28897,2.66338zm-91.5304 46.3757l0 0c-2.43838,-1.21919 -4.33543,-3.1608 -6.81869,-4.28961 -3.11592,0 -3.11592,0 -4.60562,0.225953 0,-0.225953 0,-0.451906 0.0448724,-0.677541 2.39319,-1.03938 4.87708,-1.76148 7.40585,-2.43902 3.97359,0 10.0692,0.135254 13.3662,2.43902 0.0448724,0.270507 0.0897447,0.586841 0.134617,0.903175 -2.43775,2.43743 -6.18634,3.65694 -9.52726,3.83802zm-10.5211 -10.2503l0 0c-1.39995,-1.40027 -0.722413,-2.93548 0.315698,-4.51524 0.722731,-1.89737 1.49065,-3.56815 2.57395,-5.28348 -0.316334,-1.44546 -1.5804,-0.677541 -2.39351,-0.0910177 -1.67014,0 -1.98648,-0.586523 -2.70921,-2.03167 -1.21919,-1.12913 -3.11592,-2.57427 -3.43226,-4.24505 2.25826,-0.993875 10.1609,-2.52813 11.5605,-0.496142 -0.135572,3.1608 -0.58716,4.28961 -2.25826,7.04369 -0.495824,1.89673 -1.12849,3.83802 -2.12205,5.55494 -0.450951,2.6637 -0.450951,3.79219 -0.632032,3.97327 -0.316334,0 -0.632032,0.0448724 -0.902857,0.0906994zm18.1972 -6.77318l0 0c-1.62463,-2.48389 -0.812476,-5.32963 -0.586523,-8.12794 0.676904,-1.12881 1.39964,-1.71692 2.48326,-2.48516 3.07041,-0.721777 17.1591,2.30408 12.4179,7.04528 -0.225316,0 -0.406397,0.0445541 -0.586841,0.0906994 0,-0.903494 0.496778,-1.40059 0.496778,-2.30377 -2.07718,-2.30217 -3.34188,-1.98584 -4.96715,0.361843 -0.0903812,0.631714 -0.13589,1.30925 -0.180444,1.98616 -1.76116,1.62654 -1.76116,1.62654 -2.98035,2.43902 -1.98743,0 -2.03167,-2.25762 -3.88353,-2.25762 -0.316334,0.316334 -0.632032,0.631714 -0.948366,0.948048 -0.270825,0.767285 -0.58716,1.85154 -1.2647,2.30345zm-27.093 -8.26447l0 0c-0.134935,-0.0906994 -0.225953,-0.135572 -0.316334,-0.179808 0.225953,-0.902857 0.857985,-0.497415 1.21951,0 -0.316016,0.0442359 -0.632032,0.0891082 -0.903175,0.179808zm107.967 -105.258l0 0c-0.0900629,-0.315698 -0.0900629,-0.315698 0.0448724,-0.812794 3.07105,-2.30249 2.88997,-4.01846 0.0910177,-6.00558 -0.768558,-0.135254 -1.49097,-0.270825 -2.2137,-0.406079 0.542924,-1.71597 5.37354,-1.35476 6.68343,-0.858621 2.25762,1.94192 1.35413,2.80023 -0.0448724,5.32899 -1.35508,1.21919 -2.8451,2.16692 -4.56075,2.75408z"/>
 </g>
</svg>
